<!-- Generated by IcoMoon.io -->
<svg version="1.1" xmlns="http://www.w3.org/2000/svg" width="1024" height="1024" viewBox="0 0 1024 1024">
<g id="icomoon-ignore">
</g>
<path style="fill:#9EA3B8" d="M999.967 945.633l-240.333-240.292c144.707-173.732 127.171-430.555-39.808-583.007s-424.333-146.604-584.214 13.277c-159.881 159.881-165.73 417.235-13.277 584.214s409.275 184.515 583.007 39.808l240.292 240.333c15.002 15.007 39.332 15.007 54.333 0 15.007-15.002 15.007-39.332 0-54.333v0zM89.6 435.2c0-190.87 154.73-345.6 345.6-345.6 190.868 0 345.6 154.73 345.6 345.6 0 190.868-154.732 345.6-345.6 345.6-190.782-0.21-345.389-154.819-345.6-345.6v0z"></path>
</svg>
